HIERARCHY
ROOT Hips
{
  OFFSET 365.14 88.179 197.519
  CHANNELS 6 Xposition Yposition Zposition Zrotation Xrotation Yrotation
  JOINT RightUpLeg
  {
    OFFSET -9.25084 -1.53971 -0.0324706
    CHANNELS 3 Zrotation Xrotation Yrotation
    JOINT RightLeg
    {
      OFFSET 0.0147984 -41.8767 0.0743683
      CHANNELS 3 Zrotation Xrotation Yrotation
      JOINT RightFoot
      {
        OFFSET 0.58129 -42.7665 -0.0966173
        CHANNELS 3 Zrotation Xrotation Yrotation
        End Site
        {
          OFFSET 0 -7.69 17.5
        }
      }
    }
  }
  JOINT LeftUpLeg
  {
    OFFSET 9.27183 -1.63567 0.0208533
    CHANNELS 3 Zrotation Xrotation Yrotation
    JOINT LeftLeg
    {
      OFFSET 0.0380064 -41.894 -0.0332375
      CHANNELS 3 Zrotation Xrotation Yrotation
      JOINT LeftFoot
      {
        OFFSET -0.00137207 -40.7578 0.276477
        CHANNELS 3 Zrotation Xrotation Yrotation
        End Site
        {
          OFFSET 0 -7.69 17.5
        }
      }
    }
  }
  JOINT Spine
  {
    OFFSET 0.0273715 14.2953 0.0132618
    CHANNELS 3 Zrotation Xrotation Yrotation
    JOINT Spine1
    {
      OFFSET 0.0356242 9.71545 0.0178671
      CHANNELS 3 Zrotation Xrotation Yrotation
      JOINT Spine2
      {
        OFFSET 0.0275401 10.1205 0.00234803
        CHANNELS 3 Zrotation Xrotation Yrotation
        JOINT Spine3
        {
          OFFSET 0.0388833 9.71499 0.00573168
          CHANNELS 3 Zrotation Xrotation Yrotation
          JOINT Neck
          {
            OFFSET 0.0812761 10.3796 0.11061
            CHANNELS 3 Zrotation Xrotation Yrotation
            JOINT Head
            {
              OFFSET 0.0694951 9.4737 0.0873993
              CHANNELS 3 Zrotation Xrotation Yrotation
              End Site
              {
                OFFSET 0 15.95 0
              }
            }
          }
          JOINT RightShoulder
          {
            OFFSET -3.16911 6.92878 0.0176909
            CHANNELS 3 Zrotation Xrotation Yrotation
            JOINT RightArm
            {
              OFFSET -12.7939 0.0472484 0.0511932
              CHANNELS 3 Zrotation Xrotation Yrotation
              JOINT RightForeArm
              {
                OFFSET -26.5086 -0.00989181 0.0576382
                CHANNELS 3 Zrotation Xrotation Yrotation
                JOINT RightHand
                {
                  OFFSET -26.0357 0.339815 -0.212656
                  CHANNELS 3 Zrotation Xrotation Yrotation
                  JOINT RightHandThumb1
                  {
                    OFFSET -2.48905 0.190105 3.12053
                    CHANNELS 3 Zrotation Xrotation Yrotation
                    JOINT RightHandThumb2
                    {
                      OFFSET -3.68274 0 0
                      CHANNELS 3 Zrotation Xrotation Yrotation
                      JOINT RightHandThumb3
                      {
                        OFFSET -2.55832 0 0
                        CHANNELS 3 Zrotation Xrotation Yrotation
                        End Site
                        {
                          OFFSET -2.194 0 0
                        }
                      }
                    }
                  }
                  JOINT RightInHandIndex
                  {
                    OFFSET -3.22368 0.508421 1.97842
                    CHANNELS 3 Zrotation Xrotation Yrotation
                    JOINT RightHandIndex1
                    {
                      OFFSET -5.21684 -0.091368 0.999158
                      CHANNELS 3 Zrotation Xrotation Yrotation
                      JOINT RightHandIndex2
                      {
                        OFFSET -3.61937 0 0
                        CHANNELS 3 Zrotation Xrotation Yrotation
                        JOINT RightHandIndex3
                        {
                          OFFSET -2.0521 0 0
                          CHANNELS 3 Zrotation Xrotation Yrotation
                          End Site
                          {
                            OFFSET -1.805 0 0
                          }
                        }
                      }
                    }
                  }
                  JOINT RightInHandMiddle
                  {
                    OFFSET -3.38211 0.517263 0.756737
                    CHANNELS 3 Zrotation Xrotation Yrotation
                    JOINT RightHandMiddle1
                    {
                      OFFSET -5.17411 -0.084 0.313895
                      CHANNELS 3 Zrotation Xrotation Yrotation
                      JOINT RightHandMiddle2
                      {
                        OFFSET -3.94947 0 0
                        CHANNELS 3 Zrotation Xrotation Yrotation
                        JOINT RightHandMiddle3
                        {
                          OFFSET -2.47579 0 0
                          CHANNELS 3 Zrotation Xrotation Yrotation
                          End Site
                          {
                            OFFSET -1.975 0 0
                          }
                        }
                      }
                    }
                  }
                  JOINT RightInHandRing
                  {
                    OFFSET -3.36516 0.537895 -0.128947
                    CHANNELS 3 Zrotation Xrotation Yrotation
                    JOINT RightHandRing1
                    {
                      OFFSET -4.63474 -0.022105 -0.478947
                      CHANNELS 3 Zrotation Xrotation Yrotation
                      JOINT RightHandRing2
                      {
                        OFFSET -3.44238 0 0
                        CHANNELS 3 Zrotation Xrotation Yrotation
                        JOINT RightHandRing3
                        {
                          OFFSET -2.3881 0 0
                          CHANNELS 3 Zrotation Xrotation Yrotation
                          End Site
                          {
                            OFFSET -1.857 0 0
                          }
                        }
                      }
                    }
                  }
                  JOINT RightInHandPinky
                  {
                    OFFSET -3.16105 0.469368 -1.20179
                    CHANNELS 3 Zrotation Xrotation Yrotation
                    JOINT RightHandPinky1
                    {
                      OFFSET -4.14105 -0.022105 -1.09053
                      CHANNELS 3 Zrotation Xrotation Yrotation
                      JOINT RightHandPinky2
                      {
                        OFFSET -2.75653 0 0
                        CHANNELS 3 Zrotation Xrotation Yrotation
                        JOINT RightHandPinky3
                        {
                          OFFSET -1.74189 0 0
                          CHANNELS 3 Zrotation Xrotation Yrotation
                          End Site
                          {
                            OFFSET -1.645 0 0
                          }
                        }
                      }
                    }
                  }
                }
              }
            }
          }
          JOINT LeftShoulder
          {
            OFFSET 3.24184 6.89832 -0.0228965
            CHANNELS 3 Zrotation Xrotation Yrotation
            JOINT LeftArm
            {
              OFFSET 12.8376 -0.0155948 -0.0448787
              CHANNELS 3 Zrotation Xrotation Yrotation
              JOINT LeftForeArm
              {
                OFFSET 26.5019 -0.0237061 -0.00609661
                CHANNELS 3 Zrotation Xrotation Yrotation
                JOINT LeftHand
                {
                  OFFSET 25.9931 -0.0767526 0.00928659
                  CHANNELS 3 Zrotation Xrotation Yrotation
                  JOINT LeftHandThumb1
                  {
                    OFFSET 2.48905 0.190105 3.12053
                    CHANNELS 3 Zrotation Xrotation Yrotation
                    JOINT LeftHandThumb2
                    {
                      OFFSET 3.68274 0 0
                      CHANNELS 3 Zrotation Xrotation Yrotation
                      JOINT LeftHandThumb3
                      {
                        OFFSET 2.55832 0 0
                        CHANNELS 3 Zrotation Xrotation Yrotation
                        End Site
                        {
                          OFFSET 2.194 0 0
                        }
                      }
                    }
                  }
                  JOINT LeftInHandIndex
                  {
                    OFFSET 3.22368 0.508421 1.97842
                    CHANNELS 3 Zrotation Xrotation Yrotation
                    JOINT LeftHandIndex1
                    {
                      OFFSET 5.21684 -0.091368 0.999158
                      CHANNELS 3 Zrotation Xrotation Yrotation
                      JOINT LeftHandIndex2
                      {
                        OFFSET 3.61937 0 0
                        CHANNELS 3 Zrotation Xrotation Yrotation
                        JOINT LeftHandIndex3
                        {
                          OFFSET 2.0521 0 0
                          CHANNELS 3 Zrotation Xrotation Yrotation
                          End Site
                          {
                            OFFSET 1.805 0 0
                          }
                        }
                      }
                    }
                  }
                  JOINT LeftInHandMiddle
                  {
                    OFFSET 3.38211 0.517263 0.756737
                    CHANNELS 3 Zrotation Xrotation Yrotation
                    JOINT LeftHandMiddle1
                    {
                      OFFSET 5.17411 -0.084 0.313895
                      CHANNELS 3 Zrotation Xrotation Yrotation
                      JOINT LeftHandMiddle2
                      {
                        OFFSET 3.94947 0 0
                        CHANNELS 3 Zrotation Xrotation Yrotation
                        JOINT LeftHandMiddle3
                        {
                          OFFSET 2.47579 0 0
                          CHANNELS 3 Zrotation Xrotation Yrotation
                          End Site
                          {
                            OFFSET 1.975 0 0
                          }
                        }
                      }
                    }
                  }
                  JOINT LeftInHandRing
                  {
                    OFFSET 3.36516 0.537895 -0.128947
                    CHANNELS 3 Zrotation Xrotation Yrotation
                    JOINT LeftHandRing1
                    {
                      OFFSET 4.63474 -0.022105 -0.478947
                      CHANNELS 3 Zrotation Xrotation Yrotation
                      JOINT LeftHandRing2
                      {
                        OFFSET 3.44238 0 0
                        CHANNELS 3 Zrotation Xrotation Yrotation
                        JOINT LeftHandRing3
                        {
                          OFFSET 2.3881 0 0
                          CHANNELS 3 Zrotation Xrotation Yrotation
                          End Site
                          {
                            OFFSET 1.857 0 0
                          }
                        }
                      }
                    }
                  }
                  JOINT LeftInHandPinky
                  {
                    OFFSET 3.16105 0.469368 -1.20179
                    CHANNELS 3 Zrotation Xrotation Yrotation
                    JOINT LeftHandPinky1
                    {
                      OFFSET 4.14105 -0.022105 -1.09053
                      CHANNELS 3 Zrotation Xrotation Yrotation
                      JOINT LeftHandPinky2
                      {
                        OFFSET 2.75653 0 0
                        CHANNELS 3 Zrotation Xrotation Yrotation
                        JOINT LeftHandPinky3
                        {
                          OFFSET 1.74189 0 0
                          CHANNELS 3 Zrotation Xrotation Yrotation
                          End Site
                          {
                            OFFSET 1.645 0 0
                          }
                        }
                      }
                    }
                  }
                }
              }
            }
          }
        }
      }
    }
  }
}
MOTION
Frames: 3
Frame Time: 0.00833333
1.499898979430123518e+02 -4.040215310907090216e-04 -1.636499437840944517e-03 1.275262095844385043e-03 -3.953740115603390434e-03 1.083168076845012796e-03 -8.477788008297626465e-03 6.908245361969018051e-04 -3.633888294952641353e-03 -1.676408440546766493e-03 1.220550545292211492e-03 2.658013806291072405e-03 2.444320635612100973e-02 -1.889656600673572315e-02 -9.861205043133050574e-03 2.130674480128330606e-02 1.419219254742672964e-01 -2.500568788314632696e-01 -1.856165112310478593e-01 -1.942569475526920997e-01 2.372141597246794908e-01 -4.198994373989064360e-02 -9.785158057512788332e-03 -9.913023913029650122e-03 5.464916605690332309e-03 -6.029856484638203805e-03 -8.969614242982064042e-03 -9.825174930815396002e-04 -1.198981067823709327e-03 -2.247554642931563155e-03 1.643784483878027187e-03 -1.676955203173528721e-03 -3.538626095309309501e-03 -4.898589018952837415e-04 -6.891393606356883755e-04 4.725471375520554941e-04 2.554479865029313929e-03 3.873106739451509864e-03 -5.774136216727002689e-03 -1.147427502922987105e-02 -8.960153636364830837e-03 1.314438583977179872e-02 3.081589162065453275e-02 -7.613839858602072103e-03 -5.613890727743498649e-02 -3.922970663209344316e-02 1.059088187455811125e-01 -2.836045319938952647e-02 -1.844736456962755344e+00 1.196418356636476554e+00 1.371272305057257057e+00 -8.393739462449627542e-01 -2.243323413363949470e+00 -8.787219900671655592e-01 0.000000000000000000e+00 0.000000000000000000e+00 0.000000000000000000e+00 -7.155874248139253122e-15 6.346702580329755982e-16 0.000000000000000000e+00 1.976994627570624113e-15 -6.018802988336263318e-15 0.000000000000000000e+00 -5.413282673604559281e-15 -3.077672227629248714e-15 -1.224153940072164269e-15 0.000000000000000000e+00 0.000000000000000000e+00 0.000000000000000000e+00 0.000000000000000000e+00 7.058671365554210016e-15 7.020202999962893774e-15 0.000000000000000000e+00 1.218355182649181556e-16 7.759644486862735665e-15 -5.413282673604559281e-15 -3.077672227629248714e-15 -1.224153940072164269e-15 0.000000000000000000e+00 8.912997192424619201e-15 -1.222616161783116456e-14 0.000000000000000000e+00 9.335159454767077099e-15 5.844648786144756533e-15 0.000000000000000000e+00 -9.095205596400860513e-15 1.197967284577908490e-14 -5.413282673604559281e-15 -3.077672227629248714e-15 -1.224153940072164269e-15 0.000000000000000000e+00 0.000000000000000000e+00 0.000000000000000000e+00 0.000000000000000000e+00 -6.101851270654832756e-15 9.904437747383619430e-16 0.000000000000000000e+00 5.559017092864289147e-15 3.939362446573174553e-15 -5.413282673604559281e-15 -3.077672227629248714e-15 -1.224153940072164269e-15 0.000000000000000000e+00 0.000000000000000000e+00 0.000000000000000000e+00 0.000000000000000000e+00 1.518341433540031491e-14 -3.699012940107120598e-15 0.000000000000000000e+00 1.180100366557249134e-14 2.958808862793680943e-15 -9.724680238888080974e-02 -2.735582627102469203e-03 -9.303881763684482276e-02 6.986478574718417711e-01 -4.262635983647918292e-01 -1.219347489716776423e+00 -4.587680478528573524e-01 -1.130733518213389299e-01 1.180200797523457190e+00 -6.633862673610420313e-02 -1.082946243854668311e-01 1.722404681439886898e-01 0.000000000000000000e+00 0.000000000000000000e+00 0.000000000000000000e+00 1.733632841256960920e-15 1.352830371713615395e-15 0.000000000000000000e+00 -8.052965046115029336e-15 -1.418891050441769084e-15 0.000000000000000000e+00 -5.654820456211260983e-15 -3.121911972034880234e-16 -7.937148838859855603e-16 0.000000000000000000e+00 0.000000000000000000e+00 0.000000000000000000e+00 0.000000000000000000e+00 3.176852492605381646e-16 2.062163841000420763e-14 0.000000000000000000e+00 -4.876909804902464484e-16 5.280259021814871262e-15 -5.654820456211260983e-15 -3.121911972034880234e-16 -7.937148838859855603e-16 0.000000000000000000e+00 -4.222312729967080908e-15 -2.626188925370263283e-15 0.000000000000000000e+00 5.067518018856021837e-15 -1.545051558301465962e-15 0.000000000000000000e+00 -2.988205950458601167e-15 6.215502189967580700e-15 -5.654820456211260983e-15 -3.121911972034880234e-16 -7.937148838859855603e-16 0.000000000000000000e+00 0.000000000000000000e+00 0.000000000000000000e+00 0.000000000000000000e+00 2.253851414627869730e-15 -4.733839651219378675e-16 0.000000000000000000e+00 8.143318439364174408e-15 4.947426288236894188e-15 -5.654820456211260983e-15 -3.121911972034880234e-16 -7.937148838859855603e-16 0.000000000000000000e+00 0.000000000000000000e+00 0.000000000000000000e+00 0.000000000000000000e+00 -7.075458026025214440e-16 -1.065513657970177631e-14 0.000000000000000000e+00 -1.597461144212782804e-15 8.672827274579337612e-16
1.499982935349687239e+02 6.405425333537584235e-04 -1.134851328607548206e-02 2.725153196269033615e-02 6.367736223626550840e-02 1.746986305585535373e-02 4.209580073700079639e-02 -9.837274919463558261e-06 -3.883070354759194515e-02 1.023306485711383959e-03 2.648077395938077880e-04 7.003005490807483711e-03 2.092873026206001560e-02 1.759151324148351854e-04 -2.632249722864949890e-03 7.247935563669902215e-02 8.078231151732495618e-02 -1.212512771142620904e-01 -8.706178390918913046e-02 -9.817620258345892414e-02 9.119712200621880871e-02 -5.509811746246643348e-03 -1.649692693138843369e-02 -1.933975951935351829e-03 3.955296443168196396e-02 1.635626724953533236e-03 -5.705169384827026534e-03 7.403205015187298843e-03 -3.105941251942979367e-04 1.011944393654821278e-04 1.601755091939862513e-02 -1.186003292988341631e-03 5.919139211971531818e-04 -1.570451506596187035e-04 1.548599302033191864e-04 -4.906173469297114625e-04 3.658433073278248918e-03 4.565358801942994045e-03 -5.496571047720068791e-03 5.987877283520426711e-04 2.377517412545094005e-04 -6.219070625110364667e-03 3.239498512865158358e-02 -1.260751514565397295e-02 -4.492011224957368626e-02 -1.045398496820017058e-02 -8.212160951308982576e-03 2.102189537885330167e-02 1.178838498586020744e+00 3.321977390485361670e-01 -1.408280096236217194e+00 2.614806616510524373e-01 1.385048734537720705e+00 6.994864795571494875e-01 0.000000000000000000e+00 0.000000000000000000e+00 0.000000000000000000e+00 -2.535731993988763075e-15 1.979322955492432068e-15 0.000000000000000000e+00 -9.052847447080421092e-16 -7.945028626532336372e-16 0.000000000000000000e+00 -4.974842380465680923e-15 -4.947763196842989675e-15 3.192578341386107107e-16 0.000000000000000000e+00 0.000000000000000000e+00 0.000000000000000000e+00 0.000000000000000000e+00 8.534135705891271077e-15 2.558683268352855076e-15 0.000000000000000000e+00 -3.969853027560800917e-15 -5.049440449710821127e-15 -4.974842380465680923e-15 -4.947763196842989675e-15 3.192578341386107107e-16 0.000000000000000000e+00 2.520284590830269757e-15 -4.529457953296938267e-16 0.000000000000000000e+00 4.755272220140881933e-15 4.975677403174108957e-15 0.000000000000000000e+00 -2.789538331046711402e-15 3.336239220534967300e-15 -4.974842380465680923e-15 -4.947763196842989675e-15 3.192578341386107107e-16 0.000000000000000000e+00 0.000000000000000000e+00 0.000000000000000000e+00 0.000000000000000000e+00 8.247570648062463456e-16 -8.977439295177087758e-15 0.000000000000000000e+00 3.123189773467168924e-15 -2.760192664505815625e-15 -4.974842380465680923e-15 -4.947763196842989675e-15 3.192578341386107107e-16 0.000000000000000000e+00 0.000000000000000000e+00 0.000000000000000000e+00 0.000000000000000000e+00 1.022573827569680153e-15 -8.526983186373905973e-15 0.000000000000000000e+00 -3.774323950877076304e-15 -4.456074682712540618e-15 -4.647792422462461437e-02 -5.942466159129587699e-02 -1.144707387279878252e-01 2.965346578915456499e-01 -1.908861454585807360e-01 -6.111993147628951295e-01 -2.450871891334872876e-01 -4.155300247922528306e-02 6.442834910168568907e-01 -7.197115766974084006e-02 -1.817541210632539483e-01 3.476258203972156235e-01 0.000000000000000000e+00 0.000000000000000000e+00 0.000000000000000000e+00 -5.801316385400119744e-15 1.175212722830002292e-14 0.000000000000000000e+00 -1.538871818002411671e-15 2.319329903945486812e-15 0.000000000000000000e+00 -2.233006797801323326e-15 1.295110141610444185e-15 1.442501270061181526e-16 0.000000000000000000e+00 0.000000000000000000e+00 0.000000000000000000e+00 0.000000000000000000e+00 1.334592122391510791e-15 5.544542760788551139e-15 0.000000000000000000e+00 2.302492546230905033e-15 -1.904705686591151506e-15 -2.233006797801323326e-15 1.295110141610444185e-15 1.442501270061181526e-16 0.000000000000000000e+00 -1.124911804095133984e-15 -9.167134616368662905e-16 0.000000000000000000e+00 2.405306831329441063e-15 -8.010191947982933693e-15 0.000000000000000000e+00 -2.059693250275461900e-15 -7.312705282573147246e-15 -2.233006797801323326e-15 1.295110141610444185e-15 1.442501270061181526e-16 0.000000000000000000e+00 0.000000000000000000e+00 0.000000000000000000e+00 0.000000000000000000e+00 4.739653447514506545e-15 -1.367705907589607656e-14 0.000000000000000000e+00 3.296057663167051893e-15 5.434803848903384711e-15 -2.233006797801323326e-15 1.295110141610444185e-15 1.442501270061181526e-16 0.000000000000000000e+00 0.000000000000000000e+00 0.000000000000000000e+00 0.000000000000000000e+00 1.890060331427576464e-15 -2.435934231707576984e-14 0.000000000000000000e+00 -6.004627881238420407e-16 -7.866874984531499319e-15
1.500062256997105123e+02 8.625604130777829795e-04 -2.951840445395566628e-03 2.930967209341014176e-03 2.768572059542548803e-03 -4.174923264798000022e-03 3.624877874377707265e-03 -3.536141067989127373e-03 9.713643539116104727e-04 2.557375535988453893e-03 1.569044343032497497e-03 1.935304440946481906e-03 7.774999772735649226e-03 -3.214508819382564005e-04 -1.761916876310984153e-03 5.521534596555766408e-03 -2.921282984201445040e-04 4.177172817908499786e-02 1.856332135825516927e-02 7.213004927789493093e-03 -4.122941174629807942e-02 7.519904238349502459e-03 2.757886288618390230e-03 -1.146654393428850251e-03 -1.253021602994209031e-03 3.121765364124615746e-03 8.006819876002531020e-03 1.170684116117415340e-03 9.272383315261342783e-05 2.055915148020259417e-03 -1.839129579090941651e-04 -4.607857770051051278e-04 3.274118981076230145e-03 9.901473109358131536e-05 -2.477981385416984329e-04 -5.137612931772354754e-04 -1.634461610519854970e-03 -3.470240462117944909e-03 6.364675405240407396e-03 -1.092708463709463149e-03 2.976023176041456102e-03 -1.351563259758694312e-02 8.429621101228346874e-03 -1.025678616267028907e-02 -1.350117325382230518e-02 1.825233598624073812e-03 -4.221406122705280428e-02 1.605277826435504498e-02 4.253118105958741069e+00 -2.240104531544639954e+00 -3.740038602546781998e+00 1.850438708119246822e+00 5.408570321822726790e+00 2.339796393717215039e+00 0.000000000000000000e+00 0.000000000000000000e+00 0.000000000000000000e+00 3.037889975646588412e-15 1.489973459690576803e-15 0.000000000000000000e+00 -3.259335057961091101e-15 -3.692866281443693427e-16 0.000000000000000000e+00 -3.318790639335997552e-15 3.839734914416741864e-16 5.649401900967235479e-16 0.000000000000000000e+00 0.000000000000000000e+00 0.000000000000000000e+00 0.000000000000000000e+00 -4.937571073486522319e-15 -8.210024047137761088e-15 0.000000000000000000e+00 -3.806295699324763788e-15 -8.955300221415730163e-15 -3.318790639335997552e-15 3.839734914416741864e-16 5.649401900967235479e-16 0.000000000000000000e+00 -4.503221931218302073e-15 -7.869723617840218502e-15 0.000000000000000000e+00 -9.788646768068910713e-16 -1.246963309146691928e-14 0.000000000000000000e+00 -3.669222418955983268e-15 -1.178200283955421198e-14 -3.318790639335997552e-15 3.839734914416741864e-16 5.649401900967235479e-16 0.000000000000000000e+00 0.000000000000000000e+00 0.000000000000000000e+00 0.000000000000000000e+00 -2.578130126014569712e-15 -1.181987520887383239e-14 0.000000000000000000e+00 -5.982664772768791731e-16 -9.038996011462205240e-15 -3.318790639335997552e-15 3.839734914416741864e-16 5.649401900967235479e-16 0.000000000000000000e+00 0.000000000000000000e+00 0.000000000000000000e+00 0.000000000000000000e+00 -7.841940551147383279e-16 -7.752863981473149221e-15 0.000000000000000000e+00 9.442237166717478273e-16 -8.903913991154665993e-15 4.298758168310066151e-03 -5.592705368095158419e-02 -5.503173057566652926e-02 -1.044150397308652861e-01 4.711983374948473108e-02 9.583147484964500695e-02 2.936866605932996269e-02 2.510671860760814098e-02 -3.076842407061329554e-02 -3.089692254845529534e-02 -1.060350106104644696e-01 1.721536029417443103e-01 0.000000000000000000e+00 0.000000000000000000e+00 0.000000000000000000e+00 -1.963142098949249307e-15 -1.557937192422086912e-15 0.000000000000000000e+00 4.839296342301455379e-15 -9.041450724375245918e-16 0.000000000000000000e+00 9.879769490880626824e-16 -1.729421246674661308e-16 6.326893014502000389e-16 0.000000000000000000e+00 0.000000000000000000e+00 0.000000000000000000e+00 0.000000000000000000e+00 -4.210683728426941973e-16 4.959326518585683529e-15 0.000000000000000000e+00 -3.285769030856875231e-15 2.925999158186376406e-15 9.879769490880626824e-16 -1.729421246674661308e-16 6.326893014502000389e-16 0.000000000000000000e+00 -3.127517033261497024e-15 6.834754586765458914e-15 0.000000000000000000e+00 -1.800062366153025008e-15 8.576216477480828902e-15 0.000000000000000000e+00 -1.104965802993179078e-16 1.667032112132435001e-15 9.879769490880626824e-16 -1.729421246674661308e-16 6.326893014502000389e-16 0.000000000000000000e+00 0.000000000000000000e+00 0.000000000000000000e+00 0.000000000000000000e+00 -6.285952352305744861e-15 8.110554424635502100e-15 0.000000000000000000e+00 1.149365180042891214e-15 7.685386470751851374e-15 9.879769490880626824e-16 -1.729421246674661308e-16 6.326893014502000389e-16 0.000000000000000000e+00 0.000000000000000000e+00 0.000000000000000000e+00 0.000000000000000000e+00 -4.252969355670967595e-16 4.381609040921568602e-15 0.000000000000000000e+00 -1.863740695206079717e-15 8.145314036798322702e-15
